<svg width="24" height="24" viewBox="0 0 24 24" fill="none" xmlns="http://www.w3.org/2000/svg">
<rect x="4" y="1" width="3" height="21" fill="#393947"/>
<rect x="7" y="7" width="10" height="3" fill="#393947"/>
<rect x="7" y="19" width="10" height="3" fill="#393947"/>
<rect x="7" y="15" width="10" height="3" fill="#393947"/>
<rect x="7" y="11" width="10" height="3" fill="#393947"/>
<rect x="7" y="1" width="7" height="6" fill="#393947"/>
<rect x="17" y="7" width="3" height="15" fill="#393947"/>
<rect x="15" y="1" width="2" height="1" fill="#232333"/>
<rect x="15" y="2" width="2" height="1" fill="#232333"/>
<rect x="15" y="3" width="2" height="1" fill="#232333"/>
<rect x="15" y="4" width="2" height="2" fill="#232333"/>
<rect x="17" y="4" width="3" height="2" fill="#232333"/>
<rect x="18" y="3" width="1" height="1" fill="#232333"/>
<rect x="17" y="3" width="1" height="1" fill="#232333"/>
<rect x="17" y="2" width="1" height="1" fill="#232333"/>
</svg>
