<svg width="24" height="25" viewBox="0 0 24 25" fill="none" xmlns="http://www.w3.org/2000/svg">
<rect x="2" y="2" width="20" height="2.6087" fill="#ED7035"/>
<rect x="2" y="5.60864" width="20" height="2.6087" fill="#ED7035"/>
<rect x="2" y="9.21741" width="20" height="6.95652" fill="#ED7035"/>
<rect x="2" y="16.1741" width="0.833333" height="6.08696" fill="#ED7035"/>
<rect x="21.166" y="16.1741" width="0.833333" height="6.08696" fill="#ED7035"/>
<rect x="2.83398" y="16.1741" width="1.66667" height="5.21739" fill="#ED7035"/>
<rect x="19.5" y="16.1741" width="1.66667" height="5.21739" fill="#ED7035"/>
<rect x="4.5" y="16.1741" width="1.66667" height="4.34783" fill="#ED7035"/>
<rect x="17.834" y="16.1741" width="1.66667" height="4.34783" fill="#ED7035"/>
<rect x="6.16602" y="16.1741" width="1.66667" height="3.47826" fill="#ED7035"/>
<rect x="16.166" y="16.1741" width="1.66667" height="3.47826" fill="#ED7035"/>
<rect x="5.33398" y="16.1741" width="0.833333" height="2.6087" fill="#ED7035"/>
<rect x="6.16602" y="16.1741" width="0.833333" height="1.73913" fill="#ED7035"/>
<rect x="7.83398" y="16.1741" width="1.66667" height="2.6087" fill="#ED7035"/>
<rect x="14.5" y="16.1741" width="1.66667" height="2.6087" fill="#ED7035"/>
<rect x="9.5" y="16.1741" width="1.66667" height="1.73913" fill="#ED7035"/>
<rect x="12.834" y="16.1741" width="1.66667" height="1.73913" fill="#ED7035"/>
<rect x="11.166" y="16.1741" width="1.66667" height="0.869565" fill="#ED7035"/>
<rect x="20.334" y="16.1741" width="1.66667" height="5.21739" fill="#ED7035"/>
</svg>
