<svg width="24" height="24" viewBox="0 0 24 24" fill="none" xmlns="http://www.w3.org/2000/svg">
<rect x="15.667" y="5" width="1.83333" height="0.916667" fill="#0E1345"/>
<rect x="17.5" y="5" width="0.916667" height="0.916667" fill="#0E1345"/>
<rect x="18.417" y="5.91663" width="0.916667" height="0.916667" fill="#0E1345"/>
<rect x="19.333" y="6.83337" width="0.916667" height="0.916667" fill="#0E1345"/>
<rect x="21.167" y="16.9166" width="0.916667" height="0.916667" fill="#0E1345"/>
<rect x="1.91699" y="16.9166" width="0.916667" height="0.916667" fill="#0E1345"/>
<rect x="20.25" y="17.8334" width="0.916667" height="0.916667" fill="#0E1345"/>
<rect x="19.333" y="18.75" width="0.916667" height="0.916667" fill="#0E1345"/>
<rect x="16.583" y="18.75" width="2.75" height="0.916667" fill="#0E1345"/>
<rect x="20.25" y="7.75" width="0.916667" height="0.916667" fill="#0E1345"/>
<rect x="21.167" y="9.58337" width="0.916667" height="0.916667" fill="#0E1345"/>
<rect x="21.167" y="9.58337" width="0.916667" height="1.83333" fill="#0E1345"/>
<rect x="22.083" y="11.4166" width="0.916667" height="1.83333" fill="#0E1345"/>
<rect x="22.083" y="13.25" width="0.916667" height="3.66667" fill="#0E1345"/>
<rect x="20.25" y="8.66663" width="0.916667" height="0.916667" fill="#0E1345"/>
<rect width="1.83333" height="0.916667" transform="matrix(-1 0 0 1 8.33301 5)" fill="#0E1345"/>
<rect width="7.33333" height="0.916667" transform="matrix(-1 0 0 1 15.667 5.91663)" fill="#0E1345"/>
<rect width="0.916667" height="0.916667" transform="matrix(-1 0 0 1 6.5 5)" fill="#0E1345"/>
<rect width="0.916667" height="0.916667" transform="matrix(-1 0 0 1 5.58301 5.91663)" fill="#0E1345"/>
<rect width="0.916667" height="0.916667" transform="matrix(-1 0 0 1 4.66699 6.83337)" fill="#0E1345"/>
<rect width="0.916667" height="0.916667" transform="matrix(-1 0 0 1 3.75 17.8334)" fill="#0E1345"/>
<rect width="0.916667" height="0.916667" transform="matrix(-1 0 0 1 7.41699 17.8334)" fill="#0E1345"/>
<rect width="0.916667" height="0.916667" transform="matrix(-1 0 0 1 6.5 16.9166)" fill="#0E1345"/>
<rect width="0.916667" height="0.916667" transform="matrix(-1 0 0 1 7.41699 16)" fill="#0E1345"/>
<rect width="2.75" height="0.916667" transform="matrix(-1 0 0 1 10.167 14.1666)" fill="#0E1345"/>
<rect width="20.1667" height="0.916667" transform="matrix(-1 0 0 1 22.083 15.0834)" fill="#5865F2"/>
<rect width="4.58333" height="0.916667" transform="matrix(-1 0 0 1 6.5 16)" fill="#5865F2"/>
<rect width="2.75" height="0.916667" transform="matrix(-1 0 0 1 5.58301 16.9166)" fill="#5865F2"/>
<rect width="2.75" height="0.916667" transform="matrix(-1 0 0 1 6.5 17.8334)" fill="#5865F2"/>
<rect width="2.75" height="0.916667" transform="matrix(-1 0 0 1 20.25 17.8334)" fill="#5865F2"/>
<rect width="2.75" height="0.916667" transform="matrix(-1 0 0 1 21.167 16.9166)" fill="#5865F2"/>
<rect width="4.58333" height="0.916667" transform="matrix(-1 0 0 1 22.083 16)" fill="#5865F2"/>
<rect width="7.33333" height="0.916667" transform="matrix(-1 0 0 1 15.667 16)" fill="#5865F2"/>
<rect width="5.5" height="0.916667" transform="matrix(-1 0 0 1 14.75 16.9166)" fill="#5865F2"/>
<rect width="19.25" height="1.83333" transform="matrix(-1 0 0 1 21.167 9.58337)" fill="#7883FA"/>
<rect width="16.5" height="1.83333" transform="matrix(-1 0 0 1 20.25 7.75)" fill="#7883FA"/>
<rect width="14.6667" height="0.916667" transform="matrix(-1 0 0 1 19.333 6.83337)" fill="#7883FA"/>
<rect width="2.75" height="0.916667" transform="matrix(-1 0 0 1 8.33301 5.91663)" fill="#7883FA"/>
<rect width="5.5" height="0.916667" transform="matrix(-1 0 0 1 7.41699 11.4166)" fill="#7883FA"/>
<rect width="5.5" height="0.916667" transform="matrix(-1 0 0 1 22.083 11.4166)" fill="#7883FA"/>
<rect width="3.66667" height="0.916667" transform="matrix(-1 0 0 1 13.833 11.4166)" fill="#5865F2"/>
<rect width="4.58333" height="0.916667" transform="matrix(-1 0 0 1 6.5 12.3334)" fill="#5865F2"/>
<rect width="4.58333" height="0.916667" transform="matrix(-1 0 0 1 22.083 12.3334)" fill="#5865F2"/>
<rect width="4.58333" height="0.916667" transform="matrix(-1 0 0 1 6.5 13.25)" fill="#5865F2"/>
<rect width="4.58333" height="0.916667" transform="matrix(-1 0 0 1 22.083 13.25)" fill="#5865F2"/>
<rect width="5.5" height="0.916667" transform="matrix(-1 0 0 1 7.41699 14.1666)" fill="#5865F2"/>
<rect width="5.5" height="0.916667" transform="matrix(-1 0 0 1 22.083 14.1666)" fill="#5865F2"/>
<rect width="3.66667" height="0.916667" transform="matrix(-1 0 0 1 13.833 14.1666)" fill="#5865F2"/>
<rect width="1.83333" height="1.83333" transform="matrix(-1 0 0 1 12.917 12.3334)" fill="#5865F2"/>
<rect width="2.75" height="0.916667" transform="matrix(-1 0 0 1 18.417 5.91663)" fill="#7883FA"/>
<rect width="2.75" height="0.916667" transform="matrix(-1 0 0 1 16.583 14.1666)" fill="#0E1345"/>
<rect width="2.75" height="0.916667" transform="matrix(-1 0 0 1 10.167 10.5)" fill="#0E1345"/>
<rect width="2.75" height="0.916667" transform="matrix(-1 0 0 1 16.583 10.5)" fill="#0E1345"/>
<rect width="0.916667" height="0.916667" transform="matrix(-1 0 0 1 16.583 16)" fill="#0E1345"/>
<rect width="0.916667" height="0.916667" transform="matrix(-1 0 0 1 8.33301 16)" fill="#0E1345"/>
<rect width="0.916667" height="0.916667" transform="matrix(-1 0 0 1 17.5 16)" fill="#0E1345"/>
<rect width="0.916667" height="0.916667" transform="matrix(-1 0 0 1 9.25 16.9166)" fill="#0E1345"/>
<rect width="0.916667" height="0.916667" transform="matrix(-1 0 0 1 15.667 16.9166)" fill="#0E1345"/>
<rect width="5.5" height="0.916667" transform="matrix(-1 0 0 1 14.75 17.8334)" fill="#0E1345"/>
<rect width="0.916667" height="0.916667" transform="matrix(-1 0 0 1 17.5 17.8334)" fill="#0E1345"/>
<rect width="0.916667" height="0.916667" transform="matrix(-1 0 0 1 18.417 16.9166)" fill="#0E1345"/>
<rect width="0.916667" height="0.916667" transform="matrix(-1 0 0 1 4.66699 18.75)" fill="#0E1345"/>
<rect width="2.75" height="0.916667" transform="matrix(-1 0 0 1 7.41699 18.75)" fill="#0E1345"/>
<rect width="0.916667" height="0.916667" transform="matrix(-1 0 0 1 3.75 7.75)" fill="#0E1345"/>
<rect width="0.916667" height="1.83333" transform="matrix(-1 0 0 1 2.83301 9.58337)" fill="#0E1345"/>
<rect width="0.916667" height="1.83333" transform="matrix(-1 0 0 1 1.91699 11.4166)" fill="#0E1345"/>
<rect width="0.916667" height="3.66667" transform="matrix(-1 0 0 1 1.91699 13.25)" fill="#0E1345"/>
<rect width="0.916667" height="0.916667" transform="matrix(-1 0 0 1 3.75 8.66663)" fill="#0E1345"/>
<rect width="0.916667" height="2.75" transform="matrix(-1 0 0 1 11.083 11.4166)" fill="#0E1345"/>
<rect width="0.916667" height="2.75" transform="matrix(-1 0 0 1 7.41699 11.4166)" fill="#0E1345"/>
<rect width="0.916667" height="2.75" transform="matrix(-1 0 0 1 13.833 11.4166)" fill="#0E1345"/>
<rect width="0.916667" height="2.75" transform="matrix(-1 0 0 1 17.5 11.4166)" fill="#0E1345"/>
</svg>
