<svg width="24" height="24" viewBox="0 0 24 24" fill="none" xmlns="http://www.w3.org/2000/svg">
<rect x="2" y="11" width="1" height="1" fill="#0E3545"/>
<rect x="1" y="12" width="1" height="1" fill="#0E3545"/>
<rect x="2" y="12" width="1" height="1" fill="#0E3545"/>
<rect width="8" height="1" transform="matrix(-1 0 0 1 10 12)" fill="#1E96C8"/>
<rect width="5" height="1" transform="matrix(-1 0 0 1 9 13)" fill="#1E96C8"/>
<rect width="2" height="1" transform="matrix(-1 0 0 1 8 14)" fill="#1E96C8"/>
<rect width="9" height="1" transform="matrix(-1 0 0 1 20 15)" fill="#1E96C8"/>
<rect width="8" height="1" transform="matrix(-1 0 0 1 20 14)" fill="#1E96C8"/>
<rect width="8" height="1" transform="matrix(-1 0 0 1 21 13)" fill="#1E96C8"/>
<rect width="7" height="1" transform="matrix(-1 0 0 1 21 12)" fill="#1E96C8"/>
<rect width="9" height="1" transform="matrix(-1 0 0 1 20 17)" fill="#1E96C8"/>
<rect width="7" height="1" transform="matrix(-1 0 0 1 19 18)" fill="#1E96C8"/>
<rect width="6" height="1" transform="matrix(-1 0 0 1 19 19)" fill="#1E96C8"/>
<rect width="5" height="1" transform="matrix(-1 0 0 1 19 20)" fill="#1E96C8"/>
<rect width="4" height="1" transform="matrix(-1 0 0 1 19 21)" fill="#1E96C8"/>
<rect x="13" y="10" width="6" height="1" transform="rotate(-180 13 10)" fill="#37AEE2"/>
<rect x="14" y="9" width="5" height="1" transform="rotate(-180 14 9)" fill="#37AEE2"/>
<rect x="15" y="8" width="4" height="1" transform="rotate(-180 15 8)" fill="#37AEE2"/>
<rect x="22" y="7" width="9" height="1" transform="rotate(-180 22 7)" fill="#37AEE2"/>
<rect x="22" y="8" width="5" height="1" transform="rotate(-180 22 8)" fill="#37AEE2"/>
<rect x="21" y="9" width="3" height="1" transform="rotate(-180 21 9)" fill="#37AEE2"/>
<rect x="21" y="10" width="4" height="1" transform="rotate(-180 21 10)" fill="#37AEE2"/>
<rect x="22" y="6" width="7" height="1" transform="rotate(-180 22 6)" fill="#37AEE2"/>
<rect x="22" y="5" width="5" height="1" transform="rotate(-180 22 5)" fill="#37AEE2"/>
<rect x="22" y="4" width="3" height="1" transform="rotate(-180 22 4)" fill="#37AEE2"/>
<rect x="9" y="11" width="2" height="1" fill="#0E3545"/>
<rect x="10" y="11" width="2" height="1" fill="#0E3545"/>
<rect x="10" y="12" width="1" height="1" fill="#0E3545"/>
<rect x="8" y="14" width="1" height="1" fill="#0E3545"/>
<rect x="6" y="15" width="2" height="1" fill="#0E3545"/>
<rect x="11" y="10" width="2" height="1" fill="#0E3545"/>
<rect x="13" y="9" width="1" height="1" fill="#0E3545"/>
<rect x="14" y="8" width="1" height="1" fill="#0E3545"/>
<rect x="15" y="7" width="1" height="1" fill="#0E3545"/>
<rect x="16" y="7" width="1" height="1" fill="#0E3545"/>
<rect x="17" y="7" width="1" height="1" fill="#0E3545"/>
<rect x="17" y="8" width="1" height="2" fill="#0E3545"/>
<rect x="14" y="12" width="1" height="1" fill="#0E3545"/>
<rect x="15" y="11" width="1" height="1" fill="#0E3545"/>
<rect x="16" y="10" width="1" height="1" fill="#0E3545"/>
<rect x="13" y="13" width="1" height="1" fill="#0E3545"/>
<rect x="11" y="15" width="1" height="1" fill="#0E3545"/>
<rect x="12" y="14" width="1" height="1" fill="#0E3545"/>
<rect x="2" y="13" width="2" height="1" fill="#0E3545"/>
<rect x="4" y="14" width="2" height="1" fill="#0E3545"/>
<rect x="9" y="13" width="1" height="1" fill="#0E3545"/>
<rect x="10" y="17" width="1" height="1" fill="#0E3545"/>
<rect x="11" y="18" width="1" height="1" fill="#0E3545"/>
<rect x="12" y="19" width="1" height="1" fill="#0E3545"/>
<rect x="13" y="20" width="2" height="1" fill="#0E3545"/>
<rect x="15" y="21" width="2" height="1" fill="#0E3545"/>
<rect x="19" y="19" width="1" height="3" fill="#0E3545"/>
<rect x="19" y="18" width="1" height="1" fill="#0E3545"/>
<rect x="18" y="22" width="1" height="1" fill="#0E3545"/>
<rect x="17" y="22" width="1" height="1" fill="#0E3545"/>
<rect x="20" y="17" width="1" height="1" fill="#0E3545"/>
<rect x="20" y="16" width="1" height="1" fill="#0E3545"/>
<rect x="20" y="15" width="1" height="1" fill="#0E3545"/>
<rect x="20" y="14" width="1" height="1" fill="#0E3545"/>
<rect x="21" y="13" width="1" height="1" fill="#0E3545"/>
<rect x="21" y="11" width="1" height="2" fill="#0E3545"/>
<rect x="21" y="10" width="1" height="1" fill="#0E3545"/>
<rect x="21" y="9" width="1" height="1" fill="#0E3545"/>
<rect x="21" y="8" width="1" height="1" fill="#0E3545"/>
<rect x="22" y="7" width="1" height="1" fill="#0E3545"/>
<rect x="22" y="3" width="1" height="4" fill="#0E3545"/>
<rect x="22" y="3" width="1" height="1" fill="#0E3545"/>
<rect x="3" y="10" width="2" height="1" fill="#0E3545"/>
<rect x="5" y="9" width="1" height="1" fill="#0E3545"/>
<rect x="6" y="9" width="1" height="1" fill="#0E3545"/>
<rect x="7" y="8" width="1" height="1" fill="#0E3545"/>
<rect x="8" y="8" width="1" height="1" fill="#0E3545"/>
<rect x="9" y="7" width="1" height="1" fill="#0E3545"/>
<rect x="10" y="7" width="1" height="1" fill="#0E3545"/>
<rect x="11" y="6" width="1" height="1" fill="#0E3545"/>
<rect x="12" y="6" width="1" height="1" fill="#0E3545"/>
<rect x="13" y="5" width="1" height="1" fill="#0E3545"/>
<rect x="14" y="5" width="1" height="1" fill="#0E3545"/>
<rect x="15" y="4" width="1" height="1" fill="#0E3545"/>
<rect x="17" y="3" width="1" height="1" fill="#0E3545"/>
<rect x="19" y="2" width="1" height="1" fill="#0E3545"/>
<rect x="16" y="4" width="1" height="1" fill="#0E3545"/>
<rect x="18" y="3" width="1" height="1" fill="#0E3545"/>
<rect x="20" y="2" width="2" height="1" fill="#0E3545"/>
<rect width="5" height="1" transform="matrix(-1 0 0 1 21 11)" fill="#1E96C8"/>
<rect width="4" height="1" transform="matrix(-1 0 0 1 21 10)" fill="#1E96C8"/>
<rect width="9" height="1" transform="matrix(-1 0 0 1 20 16)" fill="#1E96C8"/>
<rect width="8" height="1" transform="matrix(-1 0 0 1 11 11)" fill="#1E96C8"/>
<rect width="7" height="1" transform="matrix(-1 0 0 1 12 10)" fill="#1E96C8"/>
</svg>
