<svg width="24" height="24" viewBox="0 0 24 24" fill="none" xmlns="http://www.w3.org/2000/svg">
<rect x="4" y="5" width="1" height="5" fill="#EFD55F"/>
<rect x="5" y="7" width="1" height="4" fill="#EFD55F"/>
<rect width="1" height="4" transform="matrix(-1 0 0 1 7 8)" fill="#EFD55F"/>
<rect width="2" height="6" transform="matrix(-1 0 0 1 9 8)" fill="#EFD55F"/>
<rect width="1" height="5" transform="matrix(-1 0 0 1 9 9)" fill="#EFD55F"/>
<rect width="1" height="7" transform="matrix(-1 0 0 1 10 9)" fill="#EFD55F"/>
<rect width="1" height="7" transform="matrix(-1 0 0 1 11 8)" fill="#EFD55F"/>
<rect width="1" height="6" transform="matrix(-1 0 0 1 12 7)" fill="#EFD55F"/>
<rect width="1" height="5" transform="matrix(-1 0 0 1 13 8)" fill="#EFD55F"/>
<rect width="1" height="2" transform="matrix(-1 0 0 1 14 8)" fill="#EFD55F"/>
<rect width="1" height="2" transform="matrix(-1 0 0 1 16 9)" fill="#EFD55F"/>
<rect width="1" height="2" transform="matrix(-1 0 0 1 17 9)" fill="#EFD55F"/>
<rect width="1" height="3" transform="matrix(-1 0 0 1 14 10)" fill="#EFD55F"/>
<rect width="1" height="1" transform="matrix(-1 0 0 1 18 13)" fill="#CFA448"/>
<rect width="1" height="1" transform="matrix(-1 0 0 1 17 14)" fill="#CFA448"/>
<rect width="1" height="1" transform="matrix(-1 0 0 1 9 14)" fill="#EFD55F"/>
<rect width="1" height="1" transform="matrix(-1 0 0 1 11 16)" fill="#EFD55F"/>
<rect width="1" height="1" transform="matrix(-1 0 0 1 12 16)" fill="#EFD55F"/>
<rect width="1" height="1" transform="matrix(-1 0 0 1 12 15)" fill="#EFD55F"/>
<rect width="1" height="1" transform="matrix(-1 0 0 1 12 14)" fill="#EFD55F"/>
<rect width="1" height="2" transform="matrix(-1 0 0 1 13 15)" fill="#EFD55F"/>
<rect width="1" height="1" transform="matrix(-1 0 0 1 14 16)" fill="#CFA448"/>
<rect width="1" height="1" transform="matrix(-1 0 0 1 15 15)" fill="#EFD55F"/>
<rect width="1" height="1" transform="matrix(-1 0 0 1 15 14)" fill="#EFD55F"/>
<rect width="1" height="1" transform="matrix(-1 0 0 1 14 14)" fill="#EFD55F"/>
<rect width="1" height="1" transform="matrix(-1 0 0 1 14 13)" fill="#EFD55F"/>
<rect width="1" height="1" transform="matrix(-1 0 0 1 13 13)" fill="#EFD55F"/>
<rect width="1" height="1" transform="matrix(-1 0 0 1 16 15)" fill="#CFA448"/>
<rect width="1" height="1" transform="matrix(-1 0 0 1 13 17)" fill="#EFD55F"/>
<rect width="1" height="1" transform="matrix(-1 0 0 1 12 17)" fill="#EFD55F"/>
<rect width="1" height="2" transform="matrix(-1 0 0 1 19 11)" fill="#CFA448"/>
<rect width="1" height="1" transform="matrix(-1 0 0 1 15 9)" fill="#EFD55F"/>
<rect width="1" height="1" transform="matrix(-1 0 0 1 19 9)" fill="#CFA448"/>
<rect width="1" height="1" transform="matrix(-1 0 0 1 18 8)" fill="#CFA448"/>
<rect width="2" height="1" transform="matrix(-1 0 0 1 16 7)" fill="#CFA448"/>
<rect width="1" height="1" transform="matrix(-1 0 0 1 22 9)" fill="#CFA448"/>
<rect width="2" height="1" transform="matrix(-1 0 0 1 21 10)" fill="#CFA448"/>
<rect width="2" height="1" transform="matrix(-1 0 0 1 10 7)" fill="#EFD55F"/>
<rect width="1" height="5" transform="matrix(-1 0 0 1 21 5)" fill="#EFD55F"/>
<rect width="2" height="1" transform="matrix(-1 0 0 1 11 6)" fill="#EFD55F"/>
<rect width="3" height="1" transform="matrix(-1 0 0 1 13 5)" fill="#EFD55F"/>
<rect width="3" height="1" transform="matrix(-1 0 0 1 21 8)" fill="#EFD55F"/>
<rect width="5" height="1" transform="matrix(-1 0 0 1 21 7)" fill="#EFD55F"/>
<rect width="1" height="1" transform="matrix(-1 0 0 1 18 10)" fill="#EFD55F"/>
<rect width="1" height="1" transform="matrix(-1 0 0 1 18 11)" fill="#EFD55F"/>
<rect width="4" height="1" transform="matrix(-1 0 0 1 16 6)" fill="#EFD55F"/>
<rect width="1" height="1" transform="matrix(-1 0 0 1 20 6)" fill="#EFD55F"/>
<rect width="1" height="3" transform="matrix(-1 0 0 1 22 6)" fill="#EFD55F"/>
<rect width="1" height="3" transform="matrix(-1 0 0 1 15 10)" fill="#EFD55F"/>
<rect width="1" height="3" transform="matrix(-1 0 0 1 16 11)" fill="#EFD55F"/>
<rect width="1" height="2" transform="matrix(-1 0 0 1 17 12)" fill="#EFD55F"/>
<rect x="3" y="6" width="1" height="3" fill="#EFD55F"/>
<rect width="1" height="1" transform="matrix(-1 0 0 1 18 14)" fill="#45330E"/>
<rect width="1" height="1" transform="matrix(1 0 0 -1 19 13)" fill="#45330E"/>
<rect width="1" height="1" transform="matrix(-1 0 0 1 12 18)" fill="#45330E"/>
<rect width="1" height="1" transform="matrix(1 0 0 -1 12 5)" fill="#45330E"/>
<rect x="4" y="4" width="1" height="1" fill="#45330E"/>
<rect x="3" y="5" width="1" height="1" fill="#45330E"/>
<rect x="2" y="6" width="1" height="1" fill="#45330E"/>
<rect x="2" y="7" width="1" height="1" fill="#45330E"/>
<rect x="2" y="8" width="1" height="1" fill="#45330E"/>
<rect x="2" y="9" width="1" height="1" fill="#45330E"/>
<rect width="1" height="1" transform="matrix(-1 0 0 1 4 10)" fill="#45330E"/>
<rect width="1" height="1" transform="matrix(-1 0 0 1 4 9)" fill="#CFA448"/>
<rect width="1" height="1" transform="matrix(-1 0 0 1 5 10)" fill="#CFA448"/>
<rect width="1" height="1" transform="matrix(-1 0 0 1 6 11)" fill="#CFA448"/>
<rect width="1" height="1" transform="matrix(-1 0 0 1 7 12)" fill="#CFA448"/>
<rect width="1" height="1" transform="matrix(-1 0 0 1 8 14)" fill="#CFA448"/>
<rect width="1" height="1" transform="matrix(-1 0 0 1 9 15)" fill="#CFA448"/>
<rect width="1" height="1" transform="matrix(-1 0 0 1 10 16)" fill="#CFA448"/>
<rect width="1" height="1" transform="matrix(-1 0 0 1 11 17)" fill="#CFA448"/>
<rect width="1" height="1" transform="matrix(-1 0 0 1 5 11)" fill="#45330E"/>
<rect width="1" height="1" transform="matrix(-1 0 0 1 6 12)" fill="#45330E"/>
<rect width="1" height="1" transform="matrix(-1 0 0 1 7 13)" fill="#45330E"/>
<rect width="1" height="1" transform="matrix(-1 0 0 1 7 14)" fill="#45330E"/>
<rect width="1" height="1" transform="matrix(-1 0 0 1 8 15)" fill="#45330E"/>
<rect width="1" height="1" transform="matrix(-1 0 0 1 10 14)" fill="#45330E"/>
<rect width="1" height="1" transform="matrix(-1 0 0 1 9 13)" fill="#45330E"/>
<rect width="1" height="1" transform="matrix(-1 0 0 1 9 16)" fill="#45330E"/>
<rect width="1" height="1" transform="matrix(-1 0 0 1 10 17)" fill="#45330E"/>
<rect width="1" height="1" transform="matrix(-1 0 0 1 11 15)" fill="#45330E"/>
<rect width="1" height="1" transform="matrix(-1 0 0 1 12 16)" fill="#45330E"/>
<rect width="1" height="1" transform="matrix(-1 0 0 1 11 18)" fill="#45330E"/>
<rect width="1" height="1" transform="matrix(-1 0 0 1 13 17)" fill="#45330E"/>
<rect width="1" height="1" transform="matrix(-1 0 0 1 14 17)" fill="#45330E"/>
<rect width="1" height="1" transform="matrix(-1 0 0 1 15 16)" fill="#45330E"/>
<rect width="1" height="1" transform="matrix(-1 0 0 1 14 15)" fill="#45330E"/>
<rect width="1" height="1" transform="matrix(-1 0 0 1 13 14)" fill="#45330E"/>
<rect width="1" height="1" transform="matrix(-1 0 0 1 12 13)" fill="#45330E"/>
<rect width="1" height="1" transform="matrix(-1 0 0 1 16 16)" fill="#45330E"/>
<rect width="1" height="1" transform="matrix(-1 0 0 1 17 15)" fill="#45330E"/>
<rect x="19" y="14" width="1" height="1" transform="rotate(-180 19 14)" fill="#45330E"/>
<rect x="20" y="11" width="1" height="1" fill="#45330E"/>
<rect width="1" height="1" transform="matrix(1 0 0 -1 19 12)" fill="#45330E"/>
<rect width="1" height="1" transform="matrix(1 0 0 -1 18 11)" fill="#45330E"/>
<rect width="1" height="1" transform="matrix(1 0 0 -1 17 10)" fill="#45330E"/>
<rect width="1" height="1" transform="matrix(1 0 0 -1 11 7)" fill="#45330E"/>
<rect width="1" height="1" transform="matrix(1 0 0 -1 10 8)" fill="#45330E"/>
<rect width="1" height="1" transform="matrix(1 0 0 -1 9 9)" fill="#45330E"/>
<rect width="1" height="1" transform="matrix(1 0 0 -1 8 10)" fill="#45330E"/>
<rect width="1" height="1" transform="matrix(1 0 0 -1 7 10)" fill="#45330E"/>
<rect width="1" height="1" transform="matrix(1 0 0 -1 7 8)" fill="#45330E"/>
<rect width="1" height="1" transform="matrix(1 0 0 -1 8 7)" fill="#45330E"/>
<rect width="1" height="1" transform="matrix(1 0 0 -1 14 9)" fill="#45330E"/>
<rect width="2" height="1" transform="matrix(1 0 0 -1 12 8)" fill="#45330E"/>
<rect width="2" height="1" transform="matrix(1 0 0 -1 15 9)" fill="#45330E"/>
<rect width="1" height="1" transform="matrix(1 0 0 -1 21 11)" fill="#45330E"/>
<rect width="1" height="1" transform="matrix(1 0 0 -1 22 10)" fill="#45330E"/>
<rect width="1" height="2" transform="matrix(1 0 0 -1 22 9)" fill="#45330E"/>
<rect width="1" height="1" transform="matrix(1 0 0 -1 22 7)" fill="#45330E"/>
<rect width="1" height="1" transform="matrix(1 0 0 -1 21 6)" fill="#45330E"/>
<rect width="1" height="1" transform="matrix(1 0 0 -1 19 6)" fill="#45330E"/>
<rect width="1" height="1" transform="matrix(1 0 0 -1 20 5)" fill="#45330E"/>
<rect width="1" height="1" transform="matrix(1 0 0 -1 17 7)" fill="#45330E"/>
<rect width="1" height="1" transform="matrix(1 0 0 -1 18 7)" fill="#45330E"/>
<rect width="1" height="1" transform="matrix(1 0 0 -1 16 7)" fill="#45330E"/>
<rect width="1" height="1" transform="matrix(1 0 0 -1 15 6)" fill="#45330E"/>
<rect width="1" height="1" transform="matrix(1 0 0 -1 14 6)" fill="#45330E"/>
<rect width="1" height="1" transform="matrix(1 0 0 -1 13 6)" fill="#45330E"/>
<rect width="1" height="1" transform="matrix(1 0 0 -1 10 5)" fill="#45330E"/>
<rect width="1" height="1" transform="matrix(1 0 0 -1 9 6)" fill="#45330E"/>
<rect width="1" height="1" transform="matrix(1 0 0 -1 8 6)" fill="#45330E"/>
<rect width="1" height="1" transform="matrix(1 0 0 -1 6 7)" fill="#45330E"/>
<rect width="1" height="1" transform="matrix(1 0 0 -1 6 8)" fill="#CFA448"/>
<rect width="1" height="1" transform="matrix(1 0 0 -1 5 7)" fill="#CFA448"/>
<rect width="1" height="1" transform="matrix(1 0 0 -1 5 6)" fill="#45330E"/>
<rect width="1" height="1" transform="matrix(1 0 0 -1 11 5)" fill="#45330E"/>
<rect width="1" height="1" transform="matrix(-1 0 0 1 18 12)" fill="#45330E"/>
<rect width="1" height="1" transform="matrix(-1 0 0 1 17 11)" fill="#45330E"/>
<rect width="1" height="1" transform="matrix(-1 0 0 1 16 10)" fill="#45330E"/>
<rect width="1" height="1" transform="matrix(-1 0 0 1 16 14)" fill="#45330E"/>
<rect width="1" height="1" transform="matrix(-1 0 0 1 15 13)" fill="#45330E"/>
<rect width="1" height="1" transform="matrix(-1 0 0 1 14 12)" fill="#45330E"/>
<rect width="1" height="1" transform="matrix(-1 0 0 1 20 9)" fill="#EFD55F"/>
</svg>
