<svg width="1440" height="1024" viewBox="0 0 1440 1024" fill="none" xmlns="http://www.w3.org/2000/svg">
<g clip-path="url(#clip0_96_204237)">
<rect width="1440" height="1024" fill="white"/>
<rect width="1440" height="1024" fill="#37BCFA"/>
<rect y="520" width="1440" height="504" fill="#69CCFA"/>
<rect y="736" width="1440" height="288" fill="#91D9FA"/>
<rect y="844" width="1440" height="180" fill="#AFE2FA"/>
<rect y="952" width="1440" height="72" fill="#C3E8FA"/>
<rect x="467" y="952" width="506" height="16" fill="#AFE2FA"/>
<rect x="443" y="844" width="606" height="16" fill="#91D9FA"/>
<rect x="323" y="720" width="413" height="16" fill="#91D9FA"/>
<rect x="402" y="704" width="255" height="16" fill="#91D9FA"/>
<rect x="794" y="736" width="255" height="16" fill="#69CCFA"/>
<rect x="1308" y="720" width="75" height="16" fill="#91D9FA"/>
<rect x="726" y="520" width="431" height="16" fill="#37BCFA"/>
<rect x="855" y="536" width="210" height="16" fill="#37BCFA"/>
<rect x="1340" y="520" width="100" height="16" fill="#37BCFA"/>
<rect x="91" y="520" width="292" height="16" fill="#37BCFA"/>
<rect x="87" y="844" width="146" height="16" fill="#91D9FA"/>
<rect x="1275" y="936" width="165" height="16" fill="#C3E8FA"/>
<rect x="1192" y="844" width="165" height="16" fill="#91D9FA"/>
<rect x="272" y="828" width="16" height="16" fill="#AFE2FA"/>
<rect x="514" y="844" width="16" height="16" fill="#AFE2FA"/>
<rect x="587" y="844" width="16" height="16" fill="#AFE2FA"/>
<rect x="603" y="844" width="16" height="16" fill="#AFE2FA"/>
<rect x="506" y="688" width="16" height="16" fill="#91D9FA"/>
<rect x="553" y="504" width="16" height="16" fill="#69CCFA"/>
<rect x="569" y="504" width="16" height="16" fill="#69CCFA"/>
<rect x="545" y="488" width="16" height="16" fill="#69CCFA"/>
<rect x="283" y="536" width="16" height="16" fill="#37BCFA"/>
<rect x="537" y="504" width="16" height="16" fill="#69CCFA"/>
<rect x="521" y="504" width="16" height="16" fill="#69CCFA"/>
<rect x="152" y="720" width="16" height="16" fill="#91D9FA"/>
<rect x="136" y="720" width="16" height="16" fill="#91D9FA"/>
<rect x="136" y="704" width="16" height="16" fill="#91D9FA"/>
<rect x="75" y="536" width="16" height="16" fill="#37BCFA"/>
<rect x="16" y="520" width="16" height="16" fill="#37BCFA"/>
<rect x="288" y="844" width="16" height="16" fill="#91D9FA"/>
<rect x="50" y="936" width="16" height="16" fill="#C3E8FA"/>
<rect x="348" y="952" width="16" height="16" fill="#AFE2FA"/>
<rect x="332" y="968" width="16" height="16" fill="#AFE2FA"/>
<rect x="611" y="968" width="16" height="16" fill="#AFE2FA"/>
<rect x="872" y="860" width="16" height="16" fill="#91D9FA"/>
<rect x="895" y="752" width="16" height="16" fill="#69CCFA"/>
<rect x="786" y="536" width="16" height="16" fill="#37BCFA"/>
<rect x="1065" y="552" width="16" height="16" fill="#37BCFA"/>
<rect x="1391" y="536" width="16" height="16" fill="#37BCFA"/>
<rect x="1410" y="576" width="16" height="16" fill="#69CCFA"/>
<rect x="1394" y="576" width="16" height="16" fill="#69CCFA"/>
<rect x="1410" y="560" width="16" height="16" fill="#69CCFA"/>
<rect x="911" y="752" width="16" height="16" fill="#69CCFA"/>
<rect x="927" y="768" width="16" height="16" fill="#69CCFA"/>
<rect x="973" y="936" width="16" height="16" fill="#C3E8FA"/>
<rect x="834" y="952" width="16" height="16" fill="#C3E8FA"/>
<rect x="818" y="876" width="16" height="16" fill="#91D9FA"/>
<rect x="765" y="860" width="107" height="16" fill="#91D9FA"/>
<rect x="1378" y="936" width="16" height="16" fill="#AFE2FA"/>
<rect x="1394" y="936" width="16" height="16" fill="#AFE2FA"/>
<rect x="1378" y="952" width="16" height="16" fill="#AFE2FA"/>
<rect x="1357" y="828" width="16" height="16" fill="#AFE2FA"/>
<rect x="1217" y="720" width="16" height="16" fill="#91D9FA"/>
<rect x="1233" y="736" width="16" height="16" fill="#69CCFA"/>
<rect x="1424" y="736" width="16" height="16" fill="#69CCFA"/>
<g opacity="0.7">
<rect x="262" y="372" width="8" height="12" fill="white" fill-opacity="0.6"/>
<rect x="38" y="372" width="8" height="12" fill="white" fill-opacity="0.6"/>
<rect x="54" y="372" width="200" height="12" fill="white" fill-opacity="0.6"/>
<rect x="262" y="374" width="8" height="8" fill="white" fill-opacity="0.9"/>
<rect x="38" y="374" width="8" height="8" fill="white" fill-opacity="0.9"/>
<rect x="86" y="374" width="8" height="8" fill="white" fill-opacity="0.9"/>
<rect x="78" y="374" width="8" height="8" fill="white" fill-opacity="0.9"/>
<rect x="62" y="374" width="8" height="8" fill="white" fill-opacity="0.9"/>
<rect x="70" y="374" width="8" height="8" fill="white" fill-opacity="0.9"/>
<rect x="54" y="374" width="8" height="8" fill="white" fill-opacity="0.9"/>
<rect x="94" y="374" width="8" height="8" fill="white" fill-opacity="0.9"/>
<rect x="102" y="374" width="8" height="8" fill="white" fill-opacity="0.9"/>
<rect x="110" y="374" width="8" height="8" fill="white" fill-opacity="0.9"/>
<rect x="102" y="364" width="96" height="10" fill="white" fill-opacity="0.6"/>
<rect x="126" y="348" width="48" height="16" fill="white" fill-opacity="0.6"/>
<rect x="134" y="340" width="32" height="10" fill="white" fill-opacity="0.6"/>
<rect x="118" y="374" width="8" height="8" fill="white" fill-opacity="0.9"/>
<rect x="126" y="374" width="8" height="8" fill="white" fill-opacity="0.9"/>
<rect x="134" y="374" width="8" height="8" fill="white" fill-opacity="0.9"/>
<rect x="142" y="374" width="8" height="8" fill="white" fill-opacity="0.9"/>
<rect x="150" y="374" width="8" height="8" fill="white" fill-opacity="0.9"/>
<rect x="158" y="374" width="8" height="8" fill="white" fill-opacity="0.9"/>
<rect x="166" y="374" width="8" height="8" fill="white" fill-opacity="0.9"/>
<rect x="174" y="374" width="8" height="8" fill="white" fill-opacity="0.9"/>
<rect x="182" y="374" width="8" height="8" fill="white" fill-opacity="0.9"/>
<rect x="190" y="374" width="8" height="8" fill="white" fill-opacity="0.9"/>
<rect x="198" y="374" width="8" height="8" fill="white" fill-opacity="0.9"/>
<rect x="206" y="374" width="8" height="8" fill="white" fill-opacity="0.9"/>
<rect x="214" y="374" width="8" height="8" fill="white" fill-opacity="0.9"/>
<rect x="222" y="374" width="8" height="8" fill="white" fill-opacity="0.9"/>
<rect x="230" y="374" width="8" height="8" fill="white" fill-opacity="0.9"/>
<rect x="238" y="374" width="8" height="8" fill="white" fill-opacity="0.9"/>
<rect x="246" y="374" width="8" height="8" fill="white" fill-opacity="0.9"/>
<rect x="110" y="366" width="8" height="8" fill="white" fill-opacity="0.9"/>
<rect x="102" y="366" width="8" height="8" fill="white" fill-opacity="0.9"/>
<rect x="118" y="366" width="8" height="8" fill="white" fill-opacity="0.9"/>
<rect x="126" y="366" width="8" height="8" fill="white" fill-opacity="0.9"/>
<rect x="134" y="366" width="8" height="8" fill="white" fill-opacity="0.9"/>
<rect x="142" y="366" width="8" height="8" fill="white" fill-opacity="0.9"/>
<rect x="142" y="358" width="8" height="8" fill="white" fill-opacity="0.9"/>
<rect x="134" y="358" width="8" height="8" fill="white" fill-opacity="0.9"/>
<rect x="126" y="358" width="8" height="8" fill="white" fill-opacity="0.9"/>
<rect x="134" y="350" width="8" height="8" fill="white" fill-opacity="0.9"/>
<rect x="142" y="350" width="8" height="8" fill="white" fill-opacity="0.9"/>
<rect x="126" y="350" width="8" height="8" fill="white" fill-opacity="0.9"/>
<rect x="150" y="358" width="8" height="8" fill="white" fill-opacity="0.9"/>
<rect x="150" y="350" width="8" height="8" fill="white" fill-opacity="0.9"/>
<rect x="150" y="342" width="8" height="8" fill="white" fill-opacity="0.9"/>
<rect x="142" y="342" width="8" height="8" fill="white" fill-opacity="0.9"/>
<rect x="134" y="342" width="8" height="8" fill="white" fill-opacity="0.9"/>
<rect x="158" y="358" width="8" height="8" fill="white" fill-opacity="0.9"/>
<rect x="158" y="350" width="8" height="8" fill="white" fill-opacity="0.9"/>
<rect x="158" y="342" width="8" height="8" fill="white" fill-opacity="0.9"/>
<rect x="166" y="358" width="8" height="8" fill="white" fill-opacity="0.9"/>
<rect x="166" y="350" width="8" height="8" fill="white" fill-opacity="0.9"/>
<rect x="150" y="366" width="8" height="8" fill="white" fill-opacity="0.9"/>
<rect x="158" y="366" width="8" height="8" fill="white" fill-opacity="0.9"/>
<rect x="166" y="366" width="8" height="8" fill="white" fill-opacity="0.9"/>
<rect x="174" y="366" width="8" height="8" fill="white" fill-opacity="0.9"/>
<rect x="182" y="366" width="8" height="8" fill="white" fill-opacity="0.9"/>
<rect x="190" y="366" width="8" height="8" fill="white" fill-opacity="0.9"/>
</g>
<g opacity="0.7">
<rect x="1109" y="414" width="8" height="12" fill="white" fill-opacity="0.6"/>
<rect x="885" y="414" width="8" height="12" fill="white" fill-opacity="0.6"/>
<rect x="901" y="414" width="200" height="12" fill="white" fill-opacity="0.6"/>
<rect x="1109" y="416" width="8" height="8" fill="white" fill-opacity="0.9"/>
<rect x="885" y="416" width="8" height="8" fill="white" fill-opacity="0.9"/>
<rect x="933" y="416" width="8" height="8" fill="white" fill-opacity="0.9"/>
<rect x="925" y="416" width="8" height="8" fill="white" fill-opacity="0.9"/>
<rect x="909" y="416" width="8" height="8" fill="white" fill-opacity="0.9"/>
<rect x="917" y="416" width="8" height="8" fill="white" fill-opacity="0.9"/>
<rect x="901" y="416" width="8" height="8" fill="white" fill-opacity="0.9"/>
<rect x="941" y="416" width="8" height="8" fill="white" fill-opacity="0.9"/>
<rect x="949" y="416" width="8" height="8" fill="white" fill-opacity="0.9"/>
<rect x="957" y="416" width="8" height="8" fill="white" fill-opacity="0.9"/>
<rect x="949" y="406" width="96" height="10" fill="white" fill-opacity="0.6"/>
<rect x="973" y="390" width="48" height="16" fill="white" fill-opacity="0.6"/>
<rect x="981" y="382" width="32" height="10" fill="white" fill-opacity="0.6"/>
<rect x="965" y="416" width="8" height="8" fill="white" fill-opacity="0.9"/>
<rect x="973" y="416" width="8" height="8" fill="white" fill-opacity="0.9"/>
<rect x="981" y="416" width="8" height="8" fill="white" fill-opacity="0.9"/>
<rect x="989" y="416" width="8" height="8" fill="white" fill-opacity="0.9"/>
<rect x="997" y="416" width="8" height="8" fill="white" fill-opacity="0.9"/>
<rect x="1005" y="416" width="8" height="8" fill="white" fill-opacity="0.9"/>
<rect x="1013" y="416" width="8" height="8" fill="white" fill-opacity="0.9"/>
<rect x="1021" y="416" width="8" height="8" fill="white" fill-opacity="0.9"/>
<rect x="1029" y="416" width="8" height="8" fill="white" fill-opacity="0.9"/>
<rect x="1037" y="416" width="8" height="8" fill="white" fill-opacity="0.9"/>
<rect x="1045" y="416" width="8" height="8" fill="white" fill-opacity="0.9"/>
<rect x="1053" y="416" width="8" height="8" fill="white" fill-opacity="0.9"/>
<rect x="1061" y="416" width="8" height="8" fill="white" fill-opacity="0.9"/>
<rect x="1069" y="416" width="8" height="8" fill="white" fill-opacity="0.9"/>
<rect x="1077" y="416" width="8" height="8" fill="white" fill-opacity="0.9"/>
<rect x="1085" y="416" width="8" height="8" fill="white" fill-opacity="0.9"/>
<rect x="1093" y="416" width="8" height="8" fill="white" fill-opacity="0.9"/>
<rect x="957" y="408" width="8" height="8" fill="white" fill-opacity="0.9"/>
<rect x="949" y="408" width="8" height="8" fill="white" fill-opacity="0.9"/>
<rect x="965" y="408" width="8" height="8" fill="white" fill-opacity="0.9"/>
<rect x="973" y="408" width="8" height="8" fill="white" fill-opacity="0.9"/>
<rect x="981" y="408" width="8" height="8" fill="white" fill-opacity="0.9"/>
<rect x="989" y="408" width="8" height="8" fill="white" fill-opacity="0.9"/>
<rect x="989" y="400" width="8" height="8" fill="white" fill-opacity="0.9"/>
<rect x="981" y="400" width="8" height="8" fill="white" fill-opacity="0.9"/>
<rect x="973" y="400" width="8" height="8" fill="white" fill-opacity="0.9"/>
<rect x="981" y="392" width="8" height="8" fill="white" fill-opacity="0.9"/>
<rect x="989" y="392" width="8" height="8" fill="white" fill-opacity="0.9"/>
<rect x="973" y="392" width="8" height="8" fill="white" fill-opacity="0.9"/>
<rect x="997" y="400" width="8" height="8" fill="white" fill-opacity="0.9"/>
<rect x="997" y="392" width="8" height="8" fill="white" fill-opacity="0.9"/>
<rect x="997" y="384" width="8" height="8" fill="white" fill-opacity="0.9"/>
<rect x="989" y="384" width="8" height="8" fill="white" fill-opacity="0.9"/>
<rect x="981" y="384" width="8" height="8" fill="white" fill-opacity="0.9"/>
<rect x="1005" y="400" width="8" height="8" fill="white" fill-opacity="0.9"/>
<rect x="1005" y="392" width="8" height="8" fill="white" fill-opacity="0.9"/>
<rect x="1005" y="384" width="8" height="8" fill="white" fill-opacity="0.9"/>
<rect x="1013" y="400" width="8" height="8" fill="white" fill-opacity="0.9"/>
<rect x="1013" y="392" width="8" height="8" fill="white" fill-opacity="0.9"/>
<rect x="997" y="408" width="8" height="8" fill="white" fill-opacity="0.9"/>
<rect x="1005" y="408" width="8" height="8" fill="white" fill-opacity="0.9"/>
<rect x="1013" y="408" width="8" height="8" fill="white" fill-opacity="0.9"/>
<rect x="1021" y="408" width="8" height="8" fill="white" fill-opacity="0.9"/>
<rect x="1029" y="408" width="8" height="8" fill="white" fill-opacity="0.9"/>
<rect x="1037" y="408" width="8" height="8" fill="white" fill-opacity="0.9"/>
</g>
<g opacity="0.5">
<rect x="138" y="108" width="96" height="12" fill="white" fill-opacity="0.6"/>
<rect x="170" y="100" width="32" height="8" fill="white" fill-opacity="0.6"/>
<rect x="178" y="92" width="16" height="8" fill="white" fill-opacity="0.6"/>
<rect x="146" y="110" width="8" height="8" fill="white" fill-opacity="0.9"/>
<rect x="138" y="110" width="8" height="8" fill="white" fill-opacity="0.9"/>
<rect x="154" y="110" width="8" height="8" fill="white" fill-opacity="0.9"/>
<rect x="162" y="110" width="8" height="8" fill="white" fill-opacity="0.9"/>
<rect x="170" y="110" width="8" height="8" fill="white" fill-opacity="0.9"/>
<rect x="178" y="110" width="8" height="8" fill="white" fill-opacity="0.9"/>
<rect x="170" y="102" width="8" height="8" fill="white" fill-opacity="0.9"/>
<rect x="186" y="110" width="8" height="8" fill="white" fill-opacity="0.9"/>
<rect x="178" y="102" width="8" height="8" fill="white" fill-opacity="0.9"/>
<rect x="178" y="94" width="8" height="8" fill="white" fill-opacity="0.9"/>
<rect x="194" y="110" width="8" height="8" fill="white" fill-opacity="0.9"/>
<rect x="186" y="102" width="8" height="8" fill="white" fill-opacity="0.9"/>
<rect x="186" y="94" width="8" height="8" fill="white" fill-opacity="0.9"/>
<rect x="202" y="110" width="8" height="8" fill="white" fill-opacity="0.9"/>
<rect x="194" y="102" width="8" height="8" fill="white" fill-opacity="0.9"/>
<rect x="210" y="110" width="8" height="8" fill="white" fill-opacity="0.9"/>
<rect x="218" y="110" width="8" height="8" fill="white" fill-opacity="0.9"/>
<rect x="226" y="110" width="8" height="8" fill="white" fill-opacity="0.9"/>
</g>
<g opacity="0.5">
<rect x="579" y="112" width="96" height="12" fill="white" fill-opacity="0.6"/>
<rect x="611" y="104" width="32" height="8" fill="white" fill-opacity="0.6"/>
<rect x="619" y="96" width="16" height="8" fill="white" fill-opacity="0.6"/>
<rect x="587" y="114" width="8" height="8" fill="white" fill-opacity="0.9"/>
<rect x="579" y="114" width="8" height="8" fill="white" fill-opacity="0.9"/>
<rect x="595" y="114" width="8" height="8" fill="white" fill-opacity="0.9"/>
<rect x="603" y="114" width="8" height="8" fill="white" fill-opacity="0.9"/>
<rect x="611" y="114" width="8" height="8" fill="white" fill-opacity="0.9"/>
<rect x="619" y="114" width="8" height="8" fill="white" fill-opacity="0.9"/>
<rect x="611" y="106" width="8" height="8" fill="white" fill-opacity="0.9"/>
<rect x="627" y="114" width="8" height="8" fill="white" fill-opacity="0.9"/>
<rect x="619" y="106" width="8" height="8" fill="white" fill-opacity="0.9"/>
<rect x="619" y="98" width="8" height="8" fill="white" fill-opacity="0.9"/>
<rect x="635" y="114" width="8" height="8" fill="white" fill-opacity="0.9"/>
<rect x="627" y="106" width="8" height="8" fill="white" fill-opacity="0.9"/>
<rect x="627" y="98" width="8" height="8" fill="white" fill-opacity="0.9"/>
<rect x="643" y="114" width="8" height="8" fill="white" fill-opacity="0.9"/>
<rect x="635" y="106" width="8" height="8" fill="white" fill-opacity="0.9"/>
<rect x="651" y="114" width="8" height="8" fill="white" fill-opacity="0.9"/>
<rect x="659" y="114" width="8" height="8" fill="white" fill-opacity="0.9"/>
<rect x="667" y="114" width="8" height="8" fill="white" fill-opacity="0.9"/>
</g>
<g opacity="0.5">
<rect x="1373" y="110" width="96" height="12" fill="white" fill-opacity="0.6"/>
<rect x="1405" y="102" width="32" height="8" fill="white" fill-opacity="0.6"/>
<rect x="1413" y="94" width="16" height="8" fill="white" fill-opacity="0.6"/>
<rect x="1381" y="112" width="8" height="8" fill="white" fill-opacity="0.9"/>
<rect x="1373" y="112" width="8" height="8" fill="white" fill-opacity="0.9"/>
<rect x="1389" y="112" width="8" height="8" fill="white" fill-opacity="0.9"/>
<rect x="1397" y="112" width="8" height="8" fill="white" fill-opacity="0.9"/>
<rect x="1405" y="112" width="8" height="8" fill="white" fill-opacity="0.9"/>
<rect x="1413" y="112" width="8" height="8" fill="white" fill-opacity="0.9"/>
<rect x="1405" y="104" width="8" height="8" fill="white" fill-opacity="0.9"/>
<rect x="1421" y="112" width="8" height="8" fill="white" fill-opacity="0.9"/>
<rect x="1413" y="104" width="8" height="8" fill="white" fill-opacity="0.9"/>
<rect x="1413" y="96" width="8" height="8" fill="white" fill-opacity="0.9"/>
<rect x="1429" y="112" width="8" height="8" fill="white" fill-opacity="0.9"/>
<rect x="1421" y="104" width="8" height="8" fill="white" fill-opacity="0.9"/>
<rect x="1421" y="96" width="8" height="8" fill="white" fill-opacity="0.9"/>
<rect x="1437" y="112" width="8" height="8" fill="white" fill-opacity="0.9"/>
<rect x="1429" y="104" width="8" height="8" fill="white" fill-opacity="0.9"/>
</g>
<g opacity="0.5">
<rect x="-66" y="110" width="96" height="12" fill="white" fill-opacity="0.6"/>
<rect x="-2" y="112" width="8" height="8" fill="white" fill-opacity="0.9"/>
<rect x="6" y="112" width="8" height="8" fill="white" fill-opacity="0.9"/>
<rect x="14" y="112" width="8" height="8" fill="white" fill-opacity="0.9"/>
<rect x="22" y="112" width="8" height="8" fill="white" fill-opacity="0.9"/>
</g>
<g opacity="0.6">
<rect x="457" y="256" width="8" height="12" fill="white" fill-opacity="0.6"/>
<rect x="329" y="256" width="120" height="12" fill="white" fill-opacity="0.6"/>
<rect x="457" y="258" width="8" height="8" fill="white" fill-opacity="0.9"/>
<rect x="337" y="258" width="8" height="8" fill="white" fill-opacity="0.9"/>
<rect x="329" y="258" width="8" height="8" fill="white" fill-opacity="0.9"/>
<rect x="345" y="258" width="8" height="8" fill="white" fill-opacity="0.9"/>
<rect x="353" y="258" width="8" height="8" fill="white" fill-opacity="0.9"/>
<rect x="361" y="258" width="8" height="8" fill="white" fill-opacity="0.9"/>
<rect x="369" y="258" width="8" height="8" fill="white" fill-opacity="0.9"/>
<rect x="377" y="258" width="8" height="8" fill="white" fill-opacity="0.9"/>
<rect x="385" y="258" width="8" height="8" fill="white" fill-opacity="0.9"/>
<rect x="393" y="258" width="8" height="8" fill="white" fill-opacity="0.9"/>
<rect x="369" y="248" width="32" height="10" fill="white" fill-opacity="0.6"/>
<rect x="401" y="258" width="8" height="8" fill="white" fill-opacity="0.9"/>
<rect x="409" y="258" width="8" height="8" fill="white" fill-opacity="0.9"/>
<rect x="417" y="258" width="8" height="8" fill="white" fill-opacity="0.9"/>
<rect x="425" y="258" width="8" height="8" fill="white" fill-opacity="0.9"/>
<rect x="433" y="258" width="8" height="8" fill="white" fill-opacity="0.9"/>
<rect x="441" y="258" width="8" height="8" fill="white" fill-opacity="0.9"/>
<rect x="369" y="250" width="8" height="8" fill="white" fill-opacity="0.9"/>
<rect x="377" y="250" width="8" height="8" fill="white" fill-opacity="0.9"/>
<rect x="385" y="250" width="8" height="8" fill="white" fill-opacity="0.9"/>
<rect x="377" y="240" width="16" height="10" fill="white" fill-opacity="0.6"/>
<rect x="393" y="250" width="8" height="8" fill="white" fill-opacity="0.9"/>
<rect x="377" y="242" width="8" height="8" fill="white" fill-opacity="0.9"/>
<rect x="385" y="242" width="8" height="8" fill="white" fill-opacity="0.9"/>
</g>
<g opacity="0.6">
<rect x="1196" y="197" width="8" height="12" fill="white" fill-opacity="0.6"/>
<rect x="1068" y="197" width="120" height="12" fill="white" fill-opacity="0.6"/>
<rect x="1196" y="199" width="8" height="8" fill="white" fill-opacity="0.9"/>
<rect x="1076" y="199" width="8" height="8" fill="white" fill-opacity="0.9"/>
<rect x="1068" y="199" width="8" height="8" fill="white" fill-opacity="0.9"/>
<rect x="1084" y="199" width="8" height="8" fill="white" fill-opacity="0.9"/>
<rect x="1092" y="199" width="8" height="8" fill="white" fill-opacity="0.9"/>
<rect x="1100" y="199" width="8" height="8" fill="white" fill-opacity="0.9"/>
<rect x="1108" y="199" width="8" height="8" fill="white" fill-opacity="0.9"/>
<rect x="1116" y="199" width="8" height="8" fill="white" fill-opacity="0.9"/>
<rect x="1124" y="199" width="8" height="8" fill="white" fill-opacity="0.9"/>
<rect x="1132" y="199" width="8" height="8" fill="white" fill-opacity="0.9"/>
<rect x="1108" y="189" width="32" height="10" fill="white" fill-opacity="0.6"/>
<rect x="1140" y="199" width="8" height="8" fill="white" fill-opacity="0.9"/>
<rect x="1148" y="199" width="8" height="8" fill="white" fill-opacity="0.9"/>
<rect x="1156" y="199" width="8" height="8" fill="white" fill-opacity="0.9"/>
<rect x="1164" y="199" width="8" height="8" fill="white" fill-opacity="0.9"/>
<rect x="1172" y="199" width="8" height="8" fill="white" fill-opacity="0.9"/>
<rect x="1180" y="199" width="8" height="8" fill="white" fill-opacity="0.9"/>
<rect x="1108" y="191" width="8" height="8" fill="white" fill-opacity="0.9"/>
<rect x="1116" y="191" width="8" height="8" fill="white" fill-opacity="0.9"/>
<rect x="1124" y="191" width="8" height="8" fill="white" fill-opacity="0.9"/>
<rect x="1116" y="181" width="16" height="10" fill="white" fill-opacity="0.6"/>
<rect x="1132" y="191" width="8" height="8" fill="white" fill-opacity="0.9"/>
<rect x="1116" y="183" width="8" height="8" fill="white" fill-opacity="0.9"/>
<rect x="1124" y="183" width="8" height="8" fill="white" fill-opacity="0.9"/>
</g>
<g opacity="0.6">
<rect x="1380" y="313" width="8" height="12" fill="white" fill-opacity="0.6"/>
<rect x="1252" y="313" width="120" height="12" fill="white" fill-opacity="0.6"/>
<rect x="1380" y="315" width="8" height="8" fill="white" fill-opacity="0.9"/>
<rect x="1260" y="315" width="8" height="8" fill="white" fill-opacity="0.9"/>
<rect x="1252" y="315" width="8" height="8" fill="white" fill-opacity="0.9"/>
<rect x="1268" y="315" width="8" height="8" fill="white" fill-opacity="0.9"/>
<rect x="1276" y="315" width="8" height="8" fill="white" fill-opacity="0.9"/>
<rect x="1284" y="315" width="8" height="8" fill="white" fill-opacity="0.9"/>
<rect x="1292" y="315" width="8" height="8" fill="white" fill-opacity="0.9"/>
<rect x="1300" y="315" width="8" height="8" fill="white" fill-opacity="0.9"/>
<rect x="1308" y="315" width="8" height="8" fill="white" fill-opacity="0.9"/>
<rect x="1316" y="315" width="8" height="8" fill="white" fill-opacity="0.9"/>
<rect x="1292" y="305" width="32" height="10" fill="white" fill-opacity="0.6"/>
<rect x="1324" y="315" width="8" height="8" fill="white" fill-opacity="0.9"/>
<rect x="1332" y="315" width="8" height="8" fill="white" fill-opacity="0.9"/>
<rect x="1340" y="315" width="8" height="8" fill="white" fill-opacity="0.9"/>
<rect x="1348" y="315" width="8" height="8" fill="white" fill-opacity="0.9"/>
<rect x="1356" y="315" width="8" height="8" fill="white" fill-opacity="0.9"/>
<rect x="1364" y="315" width="8" height="8" fill="white" fill-opacity="0.9"/>
<rect x="1292" y="307" width="8" height="8" fill="white" fill-opacity="0.9"/>
<rect x="1300" y="307" width="8" height="8" fill="white" fill-opacity="0.9"/>
<rect x="1308" y="307" width="8" height="8" fill="white" fill-opacity="0.9"/>
<rect x="1300" y="297" width="16" height="10" fill="white" fill-opacity="0.6"/>
<rect x="1316" y="307" width="8" height="8" fill="white" fill-opacity="0.9"/>
<rect x="1300" y="299" width="8" height="8" fill="white" fill-opacity="0.9"/>
<rect x="1308" y="299" width="8" height="8" fill="white" fill-opacity="0.9"/>
</g>
</g>
<defs>
<clipPath id="clip0_96_204237">
<rect width="1440" height="1024" fill="white"/>
</clipPath>
</defs>
</svg>
