<svg width="24" height="24" viewBox="0 0 24 24" fill="none" xmlns="http://www.w3.org/2000/svg">
<rect x="5" y="2" width="2" height="9" fill="#9D9DA3"/>
<rect x="5" y="11" width="2" height="10" fill="#7B7B85"/>
<rect x="4" y="2" width="1" height="20" fill="#232333"/>
<rect x="7" y="7" width="10" height="1" fill="#9D9DA3"/>
<rect x="7" y="17" width="10" height="4" fill="#7B7B85"/>
<rect x="5" y="21" width="15" height="1" fill="#232333"/>
<rect x="7" y="13" width="10" height="3" fill="#7B7B85"/>
<rect x="7" y="9" width="10" height="2" fill="#9D9DA3"/>
<rect x="7" y="11" width="10" height="1" fill="#7B7B85"/>
<rect x="7" y="2" width="7" height="5" fill="#9D9DA3"/>
<rect x="17" y="11" width="2" height="10" fill="#7B7B85"/>
<rect x="17" y="7" width="2" height="4" fill="#9D9DA3"/>
<rect x="4" y="1" width="11" height="1" fill="#232333"/>
<rect x="14" y="4" width="3" height="3" fill="#9D9DA3"/>
<rect x="19" y="6" width="1" height="15" fill="#232333"/>
<rect x="17" y="5" width="1" height="2" fill="#9D9DA3"/>
<rect x="16" y="3" width="1" height="1" fill="#232333"/>
<rect x="17" y="4" width="1" height="1" fill="#232333"/>
<rect x="18" y="5" width="1" height="1" fill="#232333"/>
<rect x="18" y="6" width="1" height="1" fill="#9D9DA3"/>
<rect x="14" y="3" width="2" height="1" fill="#9D9DA3"/>
<rect x="15" y="2" width="1" height="1" fill="#232333"/>
<rect x="14" y="2" width="1" height="1" fill="#9D9DA3"/>
</svg>
