<svg width="24" height="24" viewBox="0 0 24 24" fill="none" xmlns="http://www.w3.org/2000/svg">
<rect x="22" y="7" width="1" height="1" fill="#0E3245"/>
<rect x="20" y="6" width="1" height="1" fill="#0E3245"/>
<rect width="1" height="1" transform="matrix(-1 0 0 1 22 5)" fill="#0E3245"/>
<rect x="19" y="7" width="1" height="1" fill="#0E3245"/>
<rect x="21" y="4" width="1" height="1" fill="#0E3245"/>
<rect x="20" y="4" width="1" height="1" fill="#0E3245"/>
<rect x="2" y="5" width="1" height="1" fill="#0E3245"/>
<rect x="3" y="5" width="1" height="1" fill="#0E3245"/>
<rect x="5" y="6" width="1" height="1" fill="#0E3245"/>
<rect x="6" y="7" width="1" height="1" fill="#0E3245"/>
<rect x="7" y="7" width="1" height="1" fill="#0E3245"/>
<rect x="4" y="6" width="1" height="1" fill="#0E3245"/>
<rect x="3" y="14" width="2" height="1" fill="#0E3245"/>
<rect x="5" y="15" width="2" height="1" fill="#0E3245"/>
<rect x="2" y="13" width="1" height="1" fill="#0E3245"/>
<rect x="21" y="8" width="1" height="1" fill="#0E3245"/>
<rect x="20" y="9" width="1" height="1" fill="#0E3245"/>
<rect x="19" y="10" width="1" height="1" fill="#0E3245"/>
<rect x="16" y="15" width="1" height="1" fill="#0E3245"/>
<rect x="15" y="16" width="1" height="1" fill="#0E3245"/>
<rect x="14" y="17" width="1" height="1" fill="#0E3245"/>
<rect x="12" y="18" width="2" height="1" fill="#0E3245"/>
<rect x="1" y="18" width="1" height="1" fill="#0E3245"/>
<rect x="4" y="16" width="1" height="1" fill="#0E3245"/>
<rect x="3" y="17" width="1" height="1" fill="#0E3245"/>
<rect x="2" y="18" width="1" height="1" fill="#0E3245"/>
<rect x="3" y="19" width="1" height="1" fill="#0E3245"/>
<rect x="4" y="19" width="8" height="1" fill="#0E3245"/>
<rect x="3" y="9" width="1" height="1" fill="#0E3245"/>
<rect x="3" y="10" width="2" height="1" fill="#0E3245"/>
<rect x="1" y="6" width="1" height="2" fill="#0E3245"/>
<rect x="2" y="6" width="1" height="2" fill="#47ACDF"/>
<rect x="1" y="10" width="1" height="3" fill="#0E3245"/>
<rect width="1" height="2" transform="matrix(-1 0 0 1 3 8)" fill="#0E3245"/>
<rect x="18" y="11" width="1" height="2" fill="#0E3245"/>
<rect x="17" y="13" width="1" height="2" fill="#0E3245"/>
<rect x="8" y="8" width="1" height="1" fill="#0E3245"/>
<rect x="9" y="8" width="1" height="1" fill="#0E3245"/>
<rect x="10" y="7" width="1" height="1" fill="#0E3245"/>
<rect x="10" y="6" width="1" height="1" fill="#0E3245"/>
<rect x="11" y="5" width="1" height="1" fill="#0E3245"/>
<rect x="12" y="4" width="1" height="1" fill="#0E3245"/>
<rect x="13" y="3" width="1" height="1" fill="#0E3245"/>
<rect x="14" y="3" width="1" height="1" fill="#0E3245"/>
<rect x="15" y="3" width="1" height="1" fill="#0E3245"/>
<rect x="16" y="3" width="1" height="1" fill="#0E3245"/>
<rect x="17" y="4" width="1" height="1" fill="#0E3245"/>
<rect x="17" y="5" width="1" height="1" fill="#6CBDE5"/>
<rect x="18" y="5" width="1" height="1" fill="#0E3245"/>
<rect x="3" y="7" width="1" height="2" fill="#47ACDF"/>
<rect x="4" y="8" width="1" height="2" fill="#47ACDF"/>
<rect x="2" y="10" width="1" height="3" fill="#47ACDF"/>
<rect width="1" height="3" transform="matrix(-1 0 0 1 4 11)" fill="#47ACDF"/>
<rect width="1" height="2" transform="matrix(-1 0 0 1 6 13)" fill="#47ACDF"/>
<rect width="1" height="2" transform="matrix(-1 0 0 1 5 11)" fill="#47ACDF"/>
<rect width="9" height="1" transform="matrix(-1 0 0 1 12 18)" fill="#47ACDF"/>
<rect width="10" height="1" transform="matrix(-1 0 0 1 14 17)" fill="#47ACDF"/>
<rect width="3" height="1" transform="matrix(-1 0 0 1 8 16)" fill="#47ACDF"/>
<rect width="2" height="1" transform="matrix(-1 0 0 1 16 15)" fill="#47ACDF"/>
<rect width="2" height="1" transform="matrix(-1 0 0 1 17 14)" fill="#47ACDF"/>
<rect width="1" height="1" transform="matrix(-1 0 0 1 17 13)" fill="#47ACDF"/>
<rect width="1" height="2" transform="matrix(-1 0 0 1 18 10)" fill="#47ACDF"/>
<rect width="1" height="1" transform="matrix(-1 0 0 1 6 14)" fill="#47ACDF"/>
<rect width="2" height="1" transform="matrix(-1 0 0 1 8 12)" fill="#6CBDE5"/>
<rect width="7" height="1" transform="matrix(-1 0 0 1 17 12)" fill="#6CBDE5"/>
<rect width="1" height="1" transform="matrix(-1 0 0 1 13 13)" fill="#6CBDE5"/>
<rect width="3" height="1" transform="matrix(-1 0 0 1 16 13)" fill="#47ACDF"/>
<rect width="9" height="1" transform="matrix(-1 0 0 1 15 14)" fill="#6CBDE5"/>
<rect width="7" height="1" transform="matrix(-1 0 0 1 14 15)" fill="#6CBDE5"/>
<rect width="6" height="1" transform="matrix(-1 0 0 1 14 16)" fill="#6CBDE5"/>
<rect width="3" height="1" transform="matrix(-1 0 0 1 8 8)" fill="#6CBDE5"/>
<rect width="2" height="1" transform="matrix(-1 0 0 1 6 7)" fill="#6CBDE5"/>
<rect width="1" height="1" transform="matrix(-1 0 0 1 4 6)" fill="#6CBDE5"/>
<rect width="15" height="1" transform="matrix(-1 0 0 1 20 9)" fill="#6CBDE5"/>
<rect width="11" height="1" transform="matrix(-1 0 0 1 21 8)" fill="#6CBDE5"/>
<path d="M22 7H11V8H22V7Z" fill="#6CBDE5"/>
<rect width="9" height="1" transform="matrix(-1 0 0 1 20 6)" fill="#6CBDE5"/>
<rect width="5" height="1" transform="matrix(-1 0 0 1 17 5)" fill="#6CBDE5"/>
<rect width="2" height="1" transform="matrix(-1 0 0 1 17 5)" fill="#6CBDE5"/>
<rect width="2" height="1" transform="matrix(-1 0 0 1 21 5)" fill="#6CBDE5"/>
<rect width="4" height="1" transform="matrix(-1 0 0 1 17 4)" fill="#6CBDE5"/>
<rect width="13" height="1" transform="matrix(-1 0 0 1 19 10)" fill="#6CBDE5"/>
<rect x="17" y="12" width="9" height="1" transform="rotate(-180 17 12)" fill="#6CBDE5"/>
<rect x="19" y="7" width="1" height="1" fill="#0E3245"/>
<rect width="6" height="1" transform="matrix(-1 0 0 1 15 16)" fill="#47ACDF"/>
<rect width="1" height="1" transform="matrix(-1 0 0 1 19 10)" fill="#47ACDF"/>
<rect width="1" height="1" transform="matrix(-1 0 0 1 5 13)" fill="#47ACDF"/>
<rect x="6" y="11" width="1" height="1" fill="#47ACDF"/>
<rect x="5" y="9" width="1" height="1" fill="#47ACDF"/>
<rect x="5" y="10" width="2" height="2" fill="#47ACDF"/>
<rect x="7" y="11" width="1" height="1" fill="#47ACDF"/>
<rect x="6" y="12" width="4" height="1" fill="#47ACDF"/>
<rect x="5" y="12" width="1" height="1" fill="#47ACDF"/>
<rect x="5" y="13" width="7" height="1" fill="#47ACDF"/>
<rect width="9" height="1" transform="matrix(-1 0 0 1 15 14)" fill="#47ACDF"/>
<rect width="7" height="1" transform="matrix(-1 0 0 1 14 15)" fill="#47ACDF"/>
<rect width="1" height="1" transform="matrix(-1 0 0 1 9 16)" fill="#47ACDF"/>
<rect width="3" height="1" transform="matrix(-1 0 0 1 18 12)" fill="#47ACDF"/>
<rect x="19" y="5" width="1" height="1" fill="#0E3245"/>
</svg>
