<svg width="24" height="24" viewBox="0 0 24 24" fill="none" xmlns="http://www.w3.org/2000/svg">
<rect x="16" y="4" width="2" height="1" fill="#0E3245"/>
<rect x="18" y="4" width="1" height="1" fill="#0E3245"/>
<rect x="19" y="5" width="1" height="1" fill="#0E3245"/>
<rect x="20" y="6" width="1" height="1" fill="#0E3245"/>
<rect x="22" y="17" width="1" height="1" fill="#0E3245"/>
<rect x="1" y="17" width="1" height="1" fill="#0E3245"/>
<rect x="21" y="18" width="1" height="1" fill="#0E3245"/>
<rect x="20" y="19" width="1" height="1" fill="#0E3245"/>
<rect x="17" y="19" width="3" height="1" fill="#0E3245"/>
<rect x="21" y="7" width="1" height="1" fill="#0E3245"/>
<rect x="22" y="9" width="1" height="1" fill="#0E3245"/>
<rect x="22" y="9" width="1" height="2" fill="#0E3245"/>
<rect x="23" y="11" width="1" height="2" fill="#0E3245"/>
<rect x="23" y="13" width="1" height="4" fill="#0E3245"/>
<rect x="21" y="8" width="1" height="1" fill="#0E3245"/>
<rect width="2" height="1" transform="matrix(-1 0 0 1 8 4)" fill="#0E3245"/>
<rect width="8" height="1" transform="matrix(-1 0 0 1 16 5)" fill="#0E3245"/>
<rect width="1" height="1" transform="matrix(-1 0 0 1 6 4)" fill="#0E3245"/>
<rect width="1" height="1" transform="matrix(-1 0 0 1 5 5)" fill="#0E3245"/>
<rect width="1" height="1" transform="matrix(-1 0 0 1 4 6)" fill="#0E3245"/>
<rect width="1" height="1" transform="matrix(-1 0 0 1 3 18)" fill="#0E3245"/>
<rect width="1" height="1" transform="matrix(-1 0 0 1 7 18)" fill="#0E3245"/>
<rect width="1" height="1" transform="matrix(-1 0 0 1 6 17)" fill="#0E3245"/>
<rect width="1" height="1" transform="matrix(-1 0 0 1 7 16)" fill="#0E3245"/>
<rect width="3" height="1" transform="matrix(-1 0 0 1 10 14)" fill="#0E3245"/>
<rect width="22" height="1" transform="matrix(-1 0 0 1 23 15)" fill="#5865F2"/>
<rect width="5" height="1" transform="matrix(-1 0 0 1 6 16)" fill="#5865F2"/>
<rect width="3" height="1" transform="matrix(-1 0 0 1 5 17)" fill="#5865F2"/>
<rect width="3" height="1" transform="matrix(-1 0 0 1 6 18)" fill="#5865F2"/>
<rect width="3" height="1" transform="matrix(-1 0 0 1 21 18)" fill="#5865F2"/>
<rect width="3" height="1" transform="matrix(-1 0 0 1 22 17)" fill="#5865F2"/>
<rect width="5" height="1" transform="matrix(-1 0 0 1 23 16)" fill="#5865F2"/>
<rect width="8" height="1" transform="matrix(-1 0 0 1 16 16)" fill="#5865F2"/>
<rect width="6" height="1" transform="matrix(-1 0 0 1 15 17)" fill="#5865F2"/>
<rect width="21" height="2" transform="matrix(-1 0 0 1 22 9)" fill="#5865F2"/>
<rect width="18" height="2" transform="matrix(-1 0 0 1 21 7)" fill="#5865F2"/>
<rect width="16" height="1" transform="matrix(-1 0 0 1 20 6)" fill="#5865F2"/>
<rect width="3" height="1" transform="matrix(-1 0 0 1 8 5)" fill="#5865F2"/>
<rect width="6" height="1" transform="matrix(-1 0 0 1 7 11)" fill="#5865F2"/>
<rect width="6" height="1" transform="matrix(-1 0 0 1 23 11)" fill="#5865F2"/>
<rect width="4" height="1" transform="matrix(-1 0 0 1 14 11)" fill="#5865F2"/>
<rect width="5" height="1" transform="matrix(-1 0 0 1 6 12)" fill="#5865F2"/>
<rect width="5" height="1" transform="matrix(-1 0 0 1 23 12)" fill="#5865F2"/>
<rect width="5" height="1" transform="matrix(-1 0 0 1 6 13)" fill="#5865F2"/>
<rect width="5" height="1" transform="matrix(-1 0 0 1 23 13)" fill="#5865F2"/>
<rect width="6" height="1" transform="matrix(-1 0 0 1 7 14)" fill="#5865F2"/>
<rect width="6" height="1" transform="matrix(-1 0 0 1 23 14)" fill="#5865F2"/>
<rect width="4" height="1" transform="matrix(-1 0 0 1 14 14)" fill="#5865F2"/>
<rect width="2" height="2" transform="matrix(-1 0 0 1 13 12)" fill="#5865F2"/>
<rect width="3" height="1" transform="matrix(-1 0 0 1 19 5)" fill="#5865F2"/>
<rect width="3" height="1" transform="matrix(-1 0 0 1 17 14)" fill="#0E3245"/>
<rect width="3" height="1" transform="matrix(-1 0 0 1 10 10)" fill="#0E3245"/>
<rect width="3" height="1" transform="matrix(-1 0 0 1 17 10)" fill="#0E3245"/>
<rect width="1" height="1" transform="matrix(-1 0 0 1 17 16)" fill="#0E3245"/>
<rect width="1" height="1" transform="matrix(-1 0 0 1 8 16)" fill="#0E3245"/>
<rect width="1" height="1" transform="matrix(-1 0 0 1 18 16)" fill="#0E3245"/>
<rect width="1" height="1" transform="matrix(-1 0 0 1 9 17)" fill="#0E3245"/>
<rect width="1" height="1" transform="matrix(-1 0 0 1 16 17)" fill="#0E3245"/>
<rect width="6" height="1" transform="matrix(-1 0 0 1 15 18)" fill="#0E3245"/>
<rect width="1" height="1" transform="matrix(-1 0 0 1 18 18)" fill="#0E3245"/>
<rect width="1" height="1" transform="matrix(-1 0 0 1 19 17)" fill="#0E3245"/>
<rect width="1" height="1" transform="matrix(-1 0 0 1 4 19)" fill="#0E3245"/>
<rect width="3" height="1" transform="matrix(-1 0 0 1 7 19)" fill="#0E3245"/>
<rect width="1" height="1" transform="matrix(-1 0 0 1 3 7)" fill="#0E3245"/>
<rect width="1" height="2" transform="matrix(-1 0 0 1 2 9)" fill="#0E3245"/>
<rect width="1" height="2" transform="matrix(-1 0 0 1 1 11)" fill="#0E3245"/>
<rect width="1" height="4" transform="matrix(-1 0 0 1 1 13)" fill="#0E3245"/>
<rect width="1" height="1" transform="matrix(-1 0 0 1 3 8)" fill="#0E3245"/>
<rect width="1" height="3" transform="matrix(-1 0 0 1 11 11)" fill="#0E3245"/>
<rect width="1" height="3" transform="matrix(-1 0 0 1 7 11)" fill="#0E3245"/>
<rect width="1" height="3" transform="matrix(-1 0 0 1 14 11)" fill="#0E3245"/>
<rect width="1" height="3" transform="matrix(-1 0 0 1 18 11)" fill="#0E3245"/>
</svg>
