<svg width="24" height="24" viewBox="0 0 24 24" fill="none" xmlns="http://www.w3.org/2000/svg">
<rect x="9" y="4.02295" width="1" height="1" fill="#0E0E14"/>
<rect x="16" y="4" width="1" height="1" fill="#0E0E14"/>
<rect x="17" y="3" width="4" height="1" fill="#0E0E14"/>
<rect x="3" y="3.02295" width="6" height="1" fill="#0E0E14"/>
<rect x="20.9541" y="3.95483" width="1" height="1" fill="#0E0E14"/>
<rect x="2" y="17" width="1" height="1" fill="#0E0E14"/>
<rect x="8" y="17" width="1" height="1" fill="#0E0E14"/>
<rect x="3" y="17" width="5" height="1" fill="#393947"/>
<rect x="4" y="10" width="3" height="7" fill="#393947"/>
<rect x="11.9541" y="13.9771" width="1" height="4" fill="#393947"/>
<rect x="10.9541" y="13.9771" width="1" height="2" fill="#393947"/>
<rect x="12.9541" y="13.9771" width="1" height="2" fill="#393947"/>
<rect x="9.9541" y="9.97705" width="5" height="4" fill="#393947"/>
<rect x="8.9541" y="9.97705" width="1" height="2" fill="#393947"/>
<rect x="15.9541" y="9.95459" width="4" height="7.04553" fill="#393947"/>
<rect x="3" y="18" width="5" height="1" fill="#393947"/>
<rect x="3" y="4.02295" width="6" height="1" fill="#4F4F5C"/>
<rect x="4" y="5.02295" width="6" height="1" fill="#4F4F5C"/>
<rect x="4" y="6.02295" width="7" height="1" fill="#4F4F5C"/>
<rect x="4" y="7.02295" width="8" height="1" fill="#4F4F5C"/>
<rect x="4" y="8.02295" width="8" height="1" fill="#4F4F5C"/>
<rect x="4" y="9" width="9" height="1" fill="#4F4F5C"/>
<rect x="14" y="9" width="6" height="1" fill="#4F4F5C"/>
<rect x="15" y="7" width="4.9541" height="2.02283" fill="#4F4F5C"/>
<rect x="16" y="4.95483" width="3.9541" height="2.0451" fill="#4F4F5C"/>
<rect x="17" y="4" width="3.9541" height="0.954895" fill="#4F4F5C"/>
<rect x="14.9541" y="16.9548" width="6" height="1" fill="#393947"/>
<rect x="14.9541" y="17.9548" width="6" height="1" fill="#393947"/>
<rect x="14.9541" y="18.9548" width="6" height="1" fill="#0E0E14"/>
<rect x="3" y="19" width="5" height="1" fill="#0E0E14"/>
<rect x="20.9541" y="16.9548" width="1" height="2" fill="#0E0E14"/>
<rect x="7.9541" y="10" width="1" height="2" fill="#0E0E14"/>
<rect x="8.9541" y="11.9771" width="1" height="2" fill="#0E0E14"/>
<rect x="9.9541" y="13.9771" width="1" height="2" fill="#0E0E14"/>
<rect x="11.9541" y="17.9771" width="1" height="2" fill="#0E0E14"/>
<rect x="10.9541" y="15.9771" width="1" height="2" fill="#0E0E14"/>
<rect x="12.9541" y="15.9771" width="1" height="2" fill="#0E0E14"/>
<rect x="13.9541" y="13.9771" width="1" height="2" fill="#0E0E14"/>
<rect x="14.9541" y="10" width="1" height="4" fill="#0E0E14"/>
<rect x="2" y="18" width="1" height="1" fill="#0E0E14"/>
<rect x="8" y="18" width="1" height="1" fill="#0E0E14"/>
<rect x="19.9541" y="4.95483" width="1" height="12" fill="#0E0E14"/>
<rect x="3" y="5.02295" width="1" height="12" fill="#0E0E14"/>
<rect x="7" y="10" width="1" height="7" fill="#0E0E14"/>
<rect x="10" y="5.02295" width="1" height="1" fill="#0E0E14"/>
<rect x="11" y="6.02295" width="1" height="1" fill="#0E0E14"/>
<rect x="12" y="7" width="1" height="2" fill="#0E0E14"/>
<rect x="13" y="9" width="1" height="1" fill="#0E0E14"/>
<rect x="14" y="7" width="1" height="2" fill="#0E0E14"/>
<rect x="15" y="5" width="1" height="2" fill="#0E0E14"/>
<rect x="2" y="3.45483" width="1" height="1" fill="#0E0E14"/>
<rect x="2" y="4.45483" width="1" height="1" fill="#0E0E14"/>
</svg>
