<svg width="24" height="24" viewBox="0 0 24 24" fill="none" xmlns="http://www.w3.org/2000/svg">
<circle cx="12" cy="12" r="12" fill="#46495E"/>
<path d="M12.004 19.9943L7.66547 15.6483C6.27832 14.2588 5.49902 12.3743 5.49902 10.4092C5.49902 8.44412 6.27832 6.55954 7.66547 5.17002L8.83157 4.00195L13.1726 8.35033C14.5586 9.74007 15.337 11.6243 15.3366 13.5888C15.3361 15.5532 14.5569 17.4371 13.1701 18.8261L12.004 19.9943Z" fill="url(#paint0_linear_96_204908)"/>
<path d="M10.8383 8.35058L15.1818 3.99976L16.3479 5.16783C17.0355 5.85594 17.5809 6.67303 17.953 7.57242C18.3252 8.47181 18.5168 9.43584 18.5168 10.4094C18.5168 11.383 18.3252 12.3471 17.953 13.2465C17.5809 14.1458 17.0355 14.9629 16.3479 15.651L12.0068 19.9994L10.8383 18.8289C9.45117 17.4394 8.67188 15.5548 8.67188 13.5898C8.67188 11.6247 9.45117 9.74009 10.8383 8.35058Z" fill="url(#paint1_linear_96_204908)"/>
<defs>
<linearGradient id="paint0_linear_96_204908" x1="15.3407" y1="11.9993" x2="5.49742" y2="11.9993" gradientUnits="userSpaceOnUse">
<stop stop-color="#F9575E"/>
<stop offset="0.27" stop-color="#F8555B"/>
<stop offset="0.49" stop-color="#F44F51"/>
<stop offset="0.68" stop-color="#EE4540"/>
<stop offset="0.87" stop-color="#E63728"/>
<stop offset="1" stop-color="#DE2A13"/>
</linearGradient>
<linearGradient id="paint1_linear_96_204908" x1="-29515.8" y1="24754.4" x2="-29779.9" y2="24689.7" gradientUnits="userSpaceOnUse">
<stop stop-color="#F9575E"/>
<stop offset="0.27" stop-color="#F8555B"/>
<stop offset="0.49" stop-color="#F44F51"/>
<stop offset="0.68" stop-color="#EE4540"/>
<stop offset="0.87" stop-color="#E63728"/>
<stop offset="1" stop-color="#DE2A13"/>
</linearGradient>
</defs>
</svg>
